<?xml version="1.0" encoding="utf-8"?>
<!-- Generator: Adobe Illustrator 18.1.1, SVG Export Plug-In . SVG Version: 6.00 Build 0)  -->
<svg version="1.1" id="Layer_1" xmlns="http://www.w3.org/2000/svg" xmlns:xlink="http://www.w3.org/1999/xlink" x="0px" y="0px"
	 viewBox="0 0 236.7 197.3" enable-background="new 0 0 236.7 197.3" xml:space="preserve">
<rect x="-929.2" y="-223.9" display="none" fill="#FFFFFF" width="2000" height="857.1"/>
<g display="none">
	<g display="inline">
		<polygon fill="#662D91" points="-407.5,518.7 -563.7,518.7 -563.7,362.6 -473.8,362.6 -473.8,341.1 -585.2,341.1 -585.2,540.2 
			-386.1,540.2 -386.1,480.3 -407.5,480.3 		"/>
		<polygon fill="#662D91" points="-335.2,341.1 -458.4,341.1 -458.4,362.6 -407.5,362.6 -407.5,465.1 -386.1,465.1 -386.1,362.6 
			-335.2,362.6 		"/>
	</g>
	<g display="inline">
		<path fill="#662D91" d="M-484.3,482.1c8.4,0,15.4-6.6,15.4-15.1s-7-15.2-15.4-15.2h-41.1v-73.9h34.3c20.3,0,36.8,16.5,36.8,36.8
			c0,7.7-2.3,14.7-6.5,20.6c9.1,7,14.9,17.9,14.9,30.1c0,21.2-17,38-38,38h-9v-21.3H-484.3z M-492.2,427.6c7,0,14.5-5.7,14.5-14.5
			s-7.5-14.2-14.5-14.2h-10.9v28.7H-492.2z"/>
	</g>
</g>
<g display="none">
	<g display="inline">
		<polygon points="13.9,-556.8 13.9,-485.4 -165.5,-485.4 -165.5,-664.8 -40.7,-664.8 -40.7,-685.8 -186.5,-685.8 -186.5,-464.4 
			34.9,-464.4 34.9,-556.8 		"/>
		<polygon points="34.9,-685.8 13.9,-685.8 -30.7,-685.8 -30.7,-664.8 13.9,-664.8 13.9,-566.8 34.9,-566.8 34.9,-664.8 
			79.5,-664.8 79.5,-685.8 		"/>
	</g>
	<g display="inline">
		<path d="M-74.5-535.9c8,0,14.6-6.3,14.6-14.2s-6.6-14.4-14.6-14.4h-38.8v-69.9H-81c19.2,0,34.8,15.6,34.8,34.8
			c0,7.3-2.2,13.9-6.1,19.5c8.6,6.6,14.1,17,14.1,28.5c0,20-16.1,35.9-35.9,35.9h-8.5v-20.2H-74.5z M-82-587.5
			c6.6,0,13.7-5.4,13.7-13.7c0-8.3-7.1-13.4-13.7-13.4h-10.3v27.1H-82z"/>
	</g>
</g>
<g>
	<g>
		<polygon fill="#662D91" points="177.3,112 177.3,177.3 20,177.3 20,20 128.3,20 128.3,0 0,0 0,197.3 197.3,197.3 197.3,112 		"/>
		<polygon fill="#662D91" points="197.3,0 177.3,0 138,0 138,20 177.3,20 177.3,102.3 197.3,102.3 197.3,20 236.7,20 236.7,0 		"/>
	</g>
	<g>
		<path fill="#662D91" d="M100.2,134.4c7.3,0,13.3-5.7,13.3-13s-6-13.1-13.3-13.1H64.7V44.5h29.5c17.5,0,31.7,14.2,31.7,31.7
			c0,6.6-2,12.7-5.6,17.8c7.9,6,12.8,15.5,12.8,26c0,18.2-14.7,32.8-32.8,32.8h-7.7v-18.4H100.2z M93.4,87.4c6,0,12.5-4.9,12.5-12.5
			s-6.5-12.2-12.5-12.2h-9.4v24.7H93.4z"/>
	</g>
</g>
<g display="none">
	<path display="inline" fill-rule="evenodd" clip-rule="evenodd" fill="#4C76BE" d="M-699.5,72.8c3.2-0.1,6.4,0,9.6,0
		c0.4,0,0.8,0,1.3,0V56.2c-1.7-0.2-3.5-0.4-5.3-0.5c-3.3-0.1-6.5-0.3-9.8-0.2c-5,0.1-9.7,1.3-13.9,4.3c-4.7,3.4-7.3,8.2-8.3,13.9
		c-0.4,2.3-0.5,4.7-0.6,7.1c-0.1,3.7,0,7.4,0,11.2v1.4h-15.9v18.5h15.8v46.6h19.3v-46.5h15.7c0.8-6.2,1.6-12.3,2.4-18.6
		c-1.3,0-2.4,0-3.5,0c-4.5,0-14.7,0-14.7,0s0-9.2,0.2-13.2C-707.1,74.6-703.9,73-699.5,72.8z"/>
	<path display="inline" fill-rule="evenodd" clip-rule="evenodd" fill="#00C7FF" d="M-384.3-151.2c-11.8-0.4-19.2-8.9-21.2-15.8
		c3.3,0.6,6.5,0.5,9.8-0.3c0.1,0,0.2-0.1,0.3-0.2c-6.4-1.5-11.4-4.9-14.8-10.5c-2.3-3.7-3.4-7.7-3.3-12.1c3.2,1.7,6.6,2.7,10.1,2.8
		c-4.8-3.5-8.1-8-9.4-13.8c-1.3-5.8-0.5-11.3,2.4-16.5c12.3,14.5,28,22.5,47,23.8c-0.1-0.9-0.3-1.7-0.4-2.5
		c-0.6-5.4,0.4-10.4,3.3-14.9c3.6-5.7,8.8-9.2,15.5-10.3c7.7-1.3,14.4,0.9,20,6.4c0.4,0.4,0.7,0.5,1.2,0.4c4.7-1,9.1-2.7,13.3-5.1
		c0.1-0.1,0.2-0.1,0.3-0.2c0,0,0.1,0,0.1,0c-1.8,5.3-5.1,9.4-9.8,12.4c4.4-0.5,8.6-1.7,12.7-3.4c0,0,0.1,0.1,0.1,0.1
		c-0.9,1.1-1.7,2.3-2.6,3.4c-2.4,3-5.2,5.6-8.3,7.9c-0.3,0.2-0.4,0.4-0.4,0.7c0.1,3.4,0,6.8-0.4,10.1c-0.9,7.1-2.9,13.8-5.9,20.3
		c-3.1,6.7-7.2,12.7-12.3,18c-8.7,9-19.1,14.8-31.3,17.5c-4.2,0.9-8.4,1.4-12.7,1.5c-13.1,0.4-25.3-2.9-36.5-9.8
		c-0.1-0.1-0.3-0.2-0.5-0.4c8,0.9,15.5-0.2,22.8-3.1C-391.3-146.5-387.7-148.6-384.3-151.2z"/>
	<g display="inline">
		<path fill="#FC5345" d="M-104.7-160.1c0,0.2,0,0.5,0,0.6c0,4.9,0,15.7,0,15.7s20.6,0,21.7,0c0,1.6-1.9,8.1-8,12.2
			c-3.6,2.4-7.6,3.5-11.8,3.8c-3,0.2-5.9-0.1-8.8-1c-9.1-2.9-15.8-11.1-16.7-21.1c-0.2-2.5-0.1-4.9,0.5-7.4
			c2.7-11.8,13.9-20.6,26.7-18.7c5.7,0.8,8.9,3.2,11.9,5.7c3.9-3.9,7.8-7.8,11.8-11.8c-1-0.7-3.2-3-7.2-5.3
			c-6-3.4-12.4-5.2-19.2-5.2c-1.3,0-2.6,0.1-3.9,0.1c-2.3,0.1-4.5,0.5-6.7,1c-8.8,2.2-16.1,6.8-21.8,13.9c-5.5,6.8-8.4,14.5-9,23.2
			c-0.2,3.7,0,7.3,0.9,10.9c2.3,10,7.5,18.2,15.9,24.2c6.4,4.7,13.7,7.2,21.7,7.7c4.5,0.2,8.9-0.2,13.3-1.3
			c8.1-2.1,14.9-6.4,19.9-13.1c7.4-9.8,9.1-22.3,7-34.2C-79.3-160.1-92-160.1-104.7-160.1z"/>
		<polygon fill="#FC5345" points="-17.5,-159.6 -31.3,-159.6 -31.3,-173.4 -31.3,-173.8 -31.7,-173.8 -41.9,-173.8 -42.3,-173.8 
			-42.3,-173.4 -42.3,-159.6 -56.1,-159.6 -56.5,-159.6 -56.5,-159.2 -56.5,-149 -56.5,-148.5 -56.1,-148.5 -42.3,-148.5 
			-42.3,-134.8 -42.3,-134.4 -41.9,-134.4 -31.7,-134.4 -31.3,-134.4 -31.3,-134.8 -31.3,-148.5 -17.5,-148.5 -17.1,-148.5 
			-17.1,-149 -17.1,-159.2 -17.1,-159.6 		"/>
	</g>
	<g display="inline">
		<path fill="#0B86CA" d="M-760.6-196.4h19.4v62.2h-19.4V-196.4z M-750.9-227.2c6.2,0,11.2,5,11.2,11.2c0,6.2-5,11.2-11.2,11.2
			c-6.2,0-11.2-5-11.2-11.2C-762.1-222.2-757.1-227.2-750.9-227.2"/>
		<path fill="#0B86CA" d="M-729.1-196.4h18.5v8.5h0.3c2.6-4.9,8.9-10,18.3-10c19.6,0,23.2,12.9,23.2,29.6v34.1h-19.3v-30.2
			c0-7.2-0.1-16.5-10-16.5c-10.1,0-11.6,7.8-11.6,16v30.8h-19.3V-196.4z"/>
	</g>
	<g display="inline">
		<path fill-rule="evenodd" clip-rule="evenodd" fill="#2A5AFC" d="M121.6-118.3c0-24.6,0-49.1,0-73.7c0.1,0,0.2,0,0.4,0
			c11.9,0,23.9,0,35.8,0c3.9,0,7.8,0.6,11.4,2.2c5.9,2.6,9.3,7.2,10.2,13.6c0.5,3.4,0.3,6.8-0.9,10c-1.2,3.3-3.5,5.7-6.5,7.4
			c-0.4,0.3-0.9,0.5-1.4,0.8c0.2,0.1,0.4,0.2,0.6,0.3c5.7,2.3,9.2,6.6,10.3,12.6c0.9,4.9,0.5,9.7-1.8,14.3
			c-3.3,6.5-8.5,10.5-15.8,11.7c-3.1,0.5-6.2,0.8-9.4,0.8c-10.8,0-21.6,0-32.4,0C122-118.3,121.9-118.3,121.6-118.3z M138.6-131.1
			c0.2,0,0.3,0,0.4,0c5.2,0,10.3,0,15.5,0c1.6,0,3.2-0.2,4.7-0.5c3.7-0.7,6.1-3,6.9-6.7c0.3-1.4,0.4-2.8,0.3-4.1
			c-0.1-3.6-2.1-6.2-5.4-7.4c-1.7-0.6-3.5-0.9-5.3-0.9c-5.6,0-11.3,0-16.9,0c-0.1,0-0.1,0-0.2,0
			C138.6-144.2,138.6-137.7,138.6-131.1z M138.6-163c0.1,0,0.2,0,0.3,0c5.2,0,10.5,0,15.7,0c2.4,0,4.7-0.4,6.9-1.6
			c1.6-0.8,2.6-2.1,3.1-3.9c0.4-1.5,0.4-2.9,0.3-4.4c-0.3-2.8-2-4.7-4.7-5.5c-2.4-0.7-4.9-0.9-7.3-0.9c-4.6,0-9.2,0-13.8,0
			c-0.2,0-0.3,0-0.5,0C138.6-173.8,138.6-168.4,138.6-163z"/>
		<path fill-rule="evenodd" clip-rule="evenodd" fill="#2A5AFC" d="M240-143.1c-12.8,0-25.6,0-38.4,0c0.1,0.8,0.1,1.5,0.2,2.3
			c0.2,1.5,0.6,2.9,1.2,4.3c1.7,3.6,4.7,5.5,8.5,6.3c2.1,0.4,4.3,0.4,6.4,0c3.2-0.7,5.5-2.5,7-5.3c0.2-0.3,0.4-0.4,0.7-0.4
			c4.4,0,8.7,0,13.1,0c0.1,0,0.3,0,0.6,0c-0.2,0.7-0.3,1.4-0.5,2.1c-0.8,2.7-2.4,4.9-4.2,6.9c-4,4.5-9,6.9-14.9,7.8
			c-4.6,0.7-9.2,0.6-13.7-0.7c-4.7-1.4-8.9-3.7-12.3-7.2c-2.7-2.9-4.3-6.4-5.1-10.3c-1.4-6.8-1.5-13.6,0.6-20.2
			c2.9-9.4,9.4-14.9,19-16.7c5.9-1.1,11.8-0.6,17.4,1.7c5.2,2.1,8.9,6,11.4,10.9c1.6,3.2,2.5,6.7,2.8,10.2c0.2,2.6,0.2,5.3,0.2,7.9
			C240-143.4,240-143.3,240-143.1z M225.7-152.3c0-0.1,0-0.2,0-0.2c-0.1-0.5-0.1-1-0.2-1.5c-0.7-4.1-2.9-6.9-6.7-8.5
			c-2-0.8-4.1-1-6.2-0.9c-4.4,0.3-7.5,2.4-9.3,6.4c-0.5,1.1-0.8,2.2-1.1,3.4c-0.1,0.4-0.2,0.9-0.2,1.3
			C209.9-152.3,217.8-152.3,225.7-152.3z"/>
		<path fill-rule="evenodd" clip-rule="evenodd" fill="#2A5AFC" d="M198.9-180.5c0-2.9,0-5.7,0-8.5c9.9,0,19.7,0,29.6,0
			c0,2.8,0,5.6,0,8.5C218.7-180.5,208.8-180.5,198.9-180.5z"/>
	</g>
	<g display="inline">
		<path fill="#2A5AFC" d="M279.5-56.5H82.2v-197.3h197.3V-56.5z M102.2-76.5h157.3v-157.3H102.2V-76.5z"/>
	</g>
	<g display="inline">
		<path fill="#FC5345" d="M17.5-53.3h-197.3v-197.3H17.5V-53.3z M-159.8-73.3H-2.5v-157.3h-157.3V-73.3z"/>
	</g>
	<g display="inline">
		<path fill="#00C7FF" d="M-263.8-78.1h-197.3v-197.3h197.3V-78.1z M-441.2-98.1h157.3v-157.3h-157.3V-98.1z"/>
	</g>
	<g display="inline">
		<path fill="#0B86CA" d="M-616.8-82.1h-197.3v-197.3h197.3V-82.1z M-794.2-102.1h157.3v-157.3h-157.3V-102.1z"/>
	</g>
	<g display="inline">
		<path fill="#4C76BE" d="M-616.8,205.6h-197.3V8.2h197.3V205.6z M-794.2,185.6h157.3V28.2h-157.3V185.6z"/>
	</g>
</g>
</svg>
