<?xml version="1.0" encoding="utf-8"?>
<!-- Generator: Adobe Illustrator 19.2.1, SVG Export Plug-In . SVG Version: 6.00 Build 0)  -->
<svg version="1.1" id="Layer_1" xmlns="http://www.w3.org/2000/svg" xmlns:xlink="http://www.w3.org/1999/xlink" x="0px" y="0px"
	 viewBox="0 0 197.3 197.3" style="enable-background:new 0 0 197.3 197.3;" xml:space="preserve">
<style type="text/css">
	.st0{display:none;fill:#FFFFFF;}
	.st1{display:none;}
	.st2{display:inline;}
	.st3{fill:#662D91;}
	.st4{fill:#2A5AFC;}
	.st5{fill:#FC5345;}
	.st6{fill:#C0C0C0;}
	.st7{display:inline;fill:#4C76BE;}
	.st8{fill:#0B86CA;}
	.st9{fill:#4C76BE;}
</style>
<rect x="-948.8" y="-223.9" class="st0" width="2000" height="857.1"/>
<g class="st1">
	<g class="st2">
		<polygon class="st3" points="-427.2,518.7 -583.3,518.7 -583.3,362.6 -493.5,362.6 -493.5,341.1 -604.8,341.1 -604.8,540.2 
			-405.7,540.2 -405.7,480.3 -427.2,480.3 		"/>
		<polygon class="st3" points="-354.8,341.1 -478.1,341.1 -478.1,362.6 -427.2,362.6 -427.2,465.1 -405.7,465.1 -405.7,362.6 
			-354.8,362.6 		"/>
	</g>
	<g class="st2">
		<path class="st3" d="M-503.9,482.1c8.4,0,15.4-6.6,15.4-15.1s-7-15.2-15.4-15.2H-545v-73.9h34.3c20.3,0,36.8,16.5,36.8,36.8
			c0,7.7-2.3,14.7-6.5,20.6c9.1,7,14.9,17.9,14.9,30.1c0,21.2-17,38-38,38h-9v-21.3H-503.9z M-511.8,427.6c7,0,14.5-5.7,14.5-14.5
			s-7.5-14.2-14.5-14.2h-10.9v28.7H-511.8z"/>
	</g>
</g>
<g class="st1">
	<g class="st2">
		<polygon points="-5.8,-556.8 -5.8,-485.4 -185.1,-485.4 -185.1,-664.8 -60.4,-664.8 -60.4,-685.8 -206.2,-685.8 -206.2,-464.4 
			15.2,-464.4 15.2,-556.8 		"/>
		<polygon points="15.2,-685.8 -5.8,-685.8 -50.4,-685.8 -50.4,-664.8 -5.8,-664.8 -5.8,-566.8 15.2,-566.8 15.2,-664.8 
			59.8,-664.8 59.8,-685.8 		"/>
	</g>
	<g class="st2">
		<path d="M-94.2-535.9c8,0,14.6-6.3,14.6-14.2s-6.6-14.4-14.6-14.4H-133v-69.9h32.4c19.2,0,34.8,15.6,34.8,34.8
			c0,7.3-2.2,13.9-6.1,19.5c8.6,6.6,14.1,17,14.1,28.5c0,20-16.1,35.9-35.9,35.9h-8.5v-20.2L-94.2-535.9L-94.2-535.9z M-101.7-587.5
			c6.6,0,13.7-5.4,13.7-13.7s-7.1-13.4-13.7-13.4H-112v27.1L-101.7-587.5L-101.7-587.5z"/>
	</g>
</g>
<g class="st1">
	<g class="st2">
		<polygon class="st3" points="157.7,112 157.7,177.3 0.3,177.3 0.3,20 108.7,20 108.7,0 -19.7,0 -19.7,197.3 177.7,197.3 
			177.7,112 		"/>
		<polygon class="st3" points="177.7,0 157.7,0 118.3,0 118.3,20 157.7,20 157.7,102.3 177.7,102.3 177.7,20 217,20 217,0 		"/>
	</g>
	<g class="st2">
		<path class="st3" d="M80.5,134.4c7.3,0,13.3-5.7,13.3-13s-6-13.1-13.3-13.1H45.1V44.5h29.5c17.5,0,31.7,14.2,31.7,31.7
			c0,6.6-2,12.7-5.6,17.8c7.9,6,12.8,15.5,12.8,26c0,18.2-14.7,32.8-32.8,32.8H73v-18.4L80.5,134.4L80.5,134.4z M73.7,87.4
			c6,0,12.5-4.9,12.5-12.5s-6.5-12.2-12.5-12.2h-9.4v24.7H73.7z"/>
	</g>
</g>
<g class="st1">
	<g class="st2">
		<path class="st4" d="M39.4,135.5c0-24.6,0-49.1,0-73.7c0.1,0,0.2,0,0.4,0c11.9,0,23.9,0,35.8,0c3.9,0,7.8,0.6,11.4,2.2
			c5.9,2.6,9.3,7.2,10.2,13.6c0.5,3.4,0.3,6.8-0.9,10c-1.2,3.3-3.5,5.7-6.5,7.4c-0.4,0.3-0.9,0.5-1.4,0.8c0.2,0.1,0.4,0.2,0.6,0.3
			c5.7,2.3,9.2,6.6,10.3,12.6c0.9,4.9,0.5,9.7-1.8,14.3c-3.3,6.5-8.5,10.5-15.8,11.7c-3.1,0.5-6.2,0.8-9.4,0.8
			c-10.8,0-21.6,0-32.4,0C39.9,135.5,39.7,135.5,39.4,135.5z M56.5,122.7c0.2,0,0.3,0,0.4,0c5.2,0,10.3,0,15.5,0
			c1.6,0,3.2-0.2,4.7-0.5c3.7-0.7,6.1-3,6.9-6.7c0.3-1.4,0.4-2.8,0.3-4.1c-0.1-3.6-2.1-6.2-5.4-7.4c-1.7-0.6-3.5-0.9-5.3-0.9
			c-5.6,0-11.3,0-16.9,0c-0.1,0-0.1,0-0.2,0C56.5,109.7,56.5,116.2,56.5,122.7z M56.5,90.9c0.1,0,0.2,0,0.3,0c5.2,0,10.5,0,15.7,0
			c2.4,0,4.7-0.4,6.9-1.6c1.6-0.8,2.6-2.1,3.1-3.9c0.4-1.5,0.4-2.9,0.3-4.4c-0.3-2.8-2-4.7-4.7-5.5c-2.4-0.7-4.9-0.9-7.3-0.9
			c-4.6,0-9.2,0-13.8,0c-0.2,0-0.3,0-0.5,0C56.5,80.1,56.5,85.4,56.5,90.9z"/>
		<path class="st4" d="M157.9,110.7c-12.8,0-25.6,0-38.4,0c0.1,0.8,0.1,1.5,0.2,2.3c0.2,1.5,0.6,2.9,1.2,4.3
			c1.7,3.6,4.7,5.5,8.5,6.3c2.1,0.4,4.3,0.4,6.4,0c3.2-0.7,5.5-2.5,7-5.3c0.2-0.3,0.4-0.4,0.7-0.4c4.4,0,8.7,0,13.1,0
			c0.1,0,0.3,0,0.6,0c-0.2,0.7-0.3,1.4-0.5,2.1c-0.8,2.7-2.4,4.9-4.2,6.9c-4,4.5-9,6.9-14.9,7.8c-4.6,0.7-9.2,0.6-13.7-0.7
			c-4.7-1.4-8.9-3.7-12.3-7.2c-2.7-2.9-4.3-6.4-5.1-10.3c-1.4-6.8-1.5-13.6,0.6-20.2c2.9-9.4,9.4-14.9,19-16.7
			c5.9-1.1,11.8-0.6,17.4,1.7c5.2,2.1,8.9,6,11.4,10.9c1.6,3.2,2.5,6.7,2.8,10.2c0.2,2.6,0.2,5.3,0.2,7.9
			C157.9,110.5,157.9,110.6,157.9,110.7z M143.5,101.6c0-0.1,0-0.2,0-0.2c-0.1-0.5-0.1-1-0.2-1.5c-0.7-4.1-2.9-6.9-6.7-8.5
			c-2-0.8-4.1-1-6.2-0.9c-4.4,0.3-7.5,2.4-9.3,6.4c-0.5,1.1-0.8,2.2-1.1,3.4c-0.1,0.4-0.2,0.9-0.2,1.3
			C127.7,101.6,135.6,101.6,143.5,101.6z"/>
		<path class="st4" d="M116.8,73.4c0-2.9,0-5.7,0-8.5c9.9,0,19.7,0,29.6,0c0,2.8,0,5.6,0,8.5C136.5,73.4,126.7,73.4,116.8,73.4z"/>
	</g>
	<g class="st2">
		<path class="st4" d="M197.3,197.3H0V0h197.3V197.3z M20,177.3h157.3V20H20V177.3z"/>
	</g>
</g>
<g class="st1">
	<g class="st2">
		<path class="st5" d="M75.1,90.5c0,0.2,0,0.5,0,0.6c0,4.9,0,15.7,0,15.7s20.6,0,21.7,0c0,1.6-1.9,8.1-8,12.2
			c-3.6,2.4-7.6,3.5-11.8,3.8c-3,0.2-5.9-0.1-8.8-1c-9.1-2.9-15.8-11.1-16.7-21.1c-0.2-2.5-0.1-4.9,0.5-7.4
			c2.7-11.8,13.9-20.6,26.7-18.7c5.7,0.8,8.9,3.2,11.9,5.7c3.9-3.9,7.8-7.8,11.8-11.8c-1-0.7-3.2-3-7.2-5.3C89.2,59.8,82.8,58,76,58
			c-1.3,0-2.6,0.1-3.9,0.1c-2.3,0.1-4.5,0.5-6.7,1c-8.8,2.2-16.1,6.8-21.8,13.9c-5.5,6.8-8.4,14.5-9,23.2c-0.2,3.7,0,7.3,0.9,10.9
			c2.3,10,7.5,18.2,15.9,24.2c6.4,4.7,13.7,7.2,21.7,7.7c4.5,0.2,8.9-0.2,13.3-1.3c8.1-2.1,14.9-6.4,19.9-13.1
			c7.4-9.8,9.1-22.3,7-34.2C100.5,90.5,87.8,90.5,75.1,90.5z"/>
		<polygon class="st5" points="162.3,91.1 148.6,91.1 148.6,77.3 148.6,76.9 148.2,76.9 137.9,76.9 137.5,76.9 137.5,77.3 
			137.5,91.1 123.8,91.1 123.4,91.1 123.4,91.5 123.4,101.7 123.4,102.1 123.8,102.1 137.5,102.1 137.5,115.9 137.5,116.3 
			137.9,116.3 148.2,116.3 148.6,116.3 148.6,115.9 148.6,102.1 162.3,102.1 162.7,102.1 162.7,101.7 162.7,91.5 162.7,91.1 		"/>
	</g>
	<g class="st2">
		<path class="st5" d="M197.3,197.3H0V0h197.3V197.3z M20,177.3h157.3V20H20V177.3z"/>
	</g>
</g>
<g>
	<path class="st6" d="M76.8,124.2c-11.8-0.4-19.2-8.9-21.2-15.8c3.3,0.6,6.5,0.5,9.8-0.3c0.1,0,0.2-0.1,0.3-0.2
		c-6.4-1.5-11.4-4.9-14.8-10.5c-2.3-3.7-3.4-7.7-3.3-12.1c3.2,1.7,6.6,2.7,10.1,2.8c-4.8-3.5-8.1-8-9.4-13.8
		C47,68.5,47.9,63,50.8,57.8c12.3,14.5,28,22.5,47,23.8c-0.1-0.9-0.3-1.7-0.4-2.5c-0.6-5.4,0.4-10.4,3.3-14.9
		c3.6-5.7,8.8-9.2,15.5-10.3c7.7-1.3,14.4,0.9,20,6.4c0.4,0.4,0.7,0.5,1.2,0.4c4.7-1,9.1-2.7,13.3-5.1c0.1-0.1,0.2-0.1,0.3-0.2h0.1
		c-1.8,5.3-5.1,9.4-9.8,12.4c4.4-0.5,8.6-1.7,12.7-3.4l0.1,0.1c-0.9,1.1-1.7,2.3-2.6,3.4c-2.4,3-5.2,5.6-8.3,7.9
		c-0.3,0.2-0.4,0.4-0.4,0.7c0.1,3.4,0,6.8-0.4,10.1c-0.9,7.1-2.9,13.8-5.9,20.3c-3.1,6.7-7.2,12.7-12.3,18
		c-8.7,9-19.1,14.8-31.3,17.5c-4.2,0.9-8.4,1.4-12.7,1.5c-13.1,0.4-25.3-2.9-36.5-9.8c-0.1-0.1-0.3-0.2-0.5-0.4
		c8,0.9,15.5-0.2,22.8-3.1C69.9,128.9,73.4,126.8,76.8,124.2z"/>
	<g>
		<path class="st6" d="M197.3,197.3H0V0h197.3V197.3z M20,177.3h157.3V20H20V177.3z"/>
	</g>
</g>
<g class="st1">
	<path class="st7" d="M-719.2,72.8c3.2-0.1,6.4,0,9.6,0c0.4,0,0.8,0,1.3,0V56.2c-1.7-0.2-3.5-0.4-5.3-0.5c-3.3-0.1-6.5-0.3-9.8-0.2
		c-5,0.1-9.7,1.3-13.9,4.3c-4.7,3.4-7.3,8.2-8.3,13.9c-0.4,2.3-0.5,4.7-0.6,7.1c-0.1,3.7,0,7.4,0,11.2v1.4H-762v18.5h15.8v46.6h19.3
		V112h15.7c0.8-6.2,1.6-12.3,2.4-18.6c-1.3,0-2.4,0-3.5,0c-4.5,0-14.7,0-14.7,0s0-9.2,0.2-13.2C-726.8,74.6-723.6,73-719.2,72.8z"/>
	<g class="st2">
		<path class="st8" d="M-780.3-196.4h19.4v62.2h-19.4V-196.4z M-770.6-227.2c6.2,0,11.2,5,11.2,11.2s-5,11.2-11.2,11.2
			s-11.2-5-11.2-11.2S-776.8-227.2-770.6-227.2"/>
		<path class="st8" d="M-748.8-196.4h18.5v8.5h0.3c2.6-4.9,8.9-10,18.3-10c19.6,0,23.2,12.9,23.2,29.6v34.1h-19.3v-30.2
			c0-7.2-0.1-16.5-10-16.5c-10.1,0-11.6,7.8-11.6,16v30.8h-19.3v-62.3H-748.8z"/>
	</g>
	<g class="st2">
		<path class="st8" d="M-636.5-82.1h-197.3v-197.3h197.3V-82.1z M-813.8-102.1h157.3v-157.3h-157.3V-102.1z"/>
	</g>
	<g class="st2">
		<path class="st9" d="M-636.5,205.6h-197.3V8.2h197.3V205.6z M-813.8,185.6h157.3V28.2h-157.3V185.6z"/>
	</g>
</g>
</svg>
